<svg xmlns="http://www.w3.org/2000/svg" xmlns:xlink="http://www.w3.org/1999/xlink" width="1920" height="1038" viewBox="0 0 1920 1038"><defs><clipPath id="a"><rect width="1920" height="1038" transform="translate(0 171)"/></clipPath><filter id="b" x="137" y="45" width="407" height="385" filterUnits="userSpaceOnUse"><feOffset dx="15" dy="15" input="SourceAlpha"/><feGaussianBlur stdDeviation="25" result="c"/><feFlood flood-color="#f6b906" flood-opacity="0.502"/><feComposite operator="in" in2="c"/><feComposite in="SourceGraphic"/></filter><filter id="d" x="497" y="45" width="407" height="385" filterUnits="userSpaceOnUse"><feOffset dx="15" dy="15" input="SourceAlpha"/><feGaussianBlur stdDeviation="25" result="e"/><feFlood flood-color="#121d92" flood-opacity="0.502"/><feComposite operator="in" in2="e"/><feComposite in="SourceGraphic"/></filter></defs><g transform="translate(0 -171)" clip-path="url(#a)"><rect width="1920" height="1209" fill="#fff"/><rect width="1920" height="68" transform="translate(-1 -24)" fill="#3b45b9"/><path d="M1,1V67H1919V1H1M0,0H1920V68H0Z" transform="translate(-1 -24)" fill="#707070"/><path d="M205,4H-4V-4H205Z" transform="translate(197 42)" fill="#f6b906"/><text transform="translate(196 91)" fill="#3b45b9" font-size="33" font-family="Montserrat-Medium, Montserrat" font-weight="500"><tspan x="0" y="0">Ui kit</tspan></text><g transform="translate(-693 -3529)"><g transform="translate(890 3805)"><g transform="matrix(1, 0, 0, 1, -197, -105)" filter="url(#b)"><rect width="257" height="235" rx="30" transform="translate(197 105)" fill="#f6b906"/></g></g></g><g transform="translate(-333 -3529)"><g transform="translate(890 3805)"><g transform="matrix(1, 0, 0, 1, -557, -105)" filter="url(#d)"><rect width="257" height="235" rx="30" transform="translate(557 105)" fill="#3b45b9"/></g></g></g><text transform="translate(197 751)" fill="#f6b906" font-size="60" font-family="Poppins-Regular, Poppins" letter-spacing="0.05em"><tspan x="0" y="0">Poppins</tspan></text><text transform="translate(1037 751)" fill="#f6b906" font-size="60" font-family="Poppins-Regular, Poppins" letter-spacing="0.05em"><tspan x="0" y="0">Lato</tspan></text><text transform="translate(196 872)" fill="#3b45b9" font-size="40" font-family="Poppins-Regular, Poppins"><tspan x="0" y="0">Aa Bb Cc Dd Ee Ff Gg Hh Ii Jj Kk Ll</tspan><tspan x="0" y="60">Mm Nn Oo Pp Qq Rr Ss Tt Uu </tspan><tspan x="0" y="120">Ww Xx Yy Zz</tspan><tspan x="0" y="180">123456789</tspan></text><text transform="translate(1037 869)" fill="#3b45b9" font-size="40" font-family="Lato-Regular, Lato"><tspan x="0" y="0">Aa Bb Cc Dd Ee Ff Gg Hh Ii Jj Kk Ll</tspan><tspan x="0" y="48">Mm Nn Oo Pp Qq Rr Ss Tt Uu </tspan><tspan x="0" y="96">Ww Xx Yy Zz</tspan><tspan x="0" y="144">123456789</tspan></text></g></svg>