<?xml version="1.0" encoding="UTF-8"?>
<svg id="Layer_1" data-name="Layer 1" xmlns="http://www.w3.org/2000/svg" viewBox="0 0 51.27 55.01">
  <defs>
    <style>
      .cls-1 {
        fill: #92dbdf;
      }

      .cls-2 {
        fill: #f77432;
      }
    </style>
  </defs>
  <polygon class="cls-1" points="8.31 29.32 7.47 31.46 26.46 31.46 27.35 29.32 8.31 29.32"/>
  <polygon class="cls-1" points="24.09 0 50.36 43.45 47.39 43.45 22.65 2.29 24.09 0"/>
  <polygon class="cls-1" points="24.13 10.02 1.78 47.94 4.34 47.94 25.36 12.07 24.13 10.02"/>
  <polygon class="cls-1" points="14.83 40.67 17.57 40.67 29.89 19.03 28.73 17.13 14.83 40.67"/>
  <path class="cls-2" d="M26.88,52.65c-11.07,.75-18.07-7.24-18.07-7.24l-1.24,2.1s7.17,7.71,18.46,7.5c12.04,.11,19.56-9.59,19.56-9.59l-1.32-2.14s-5.77,8.84-17.39,9.37Z"/>
  <path class="cls-2" d="M2.5,18.55c-5.84,12.3,.38,22.36,.38,22.36l1.5-2.47S-.02,28.7,4.95,19.05C10.22,9.06,19.33,6.79,22.14,6.31l-1.29-2.15C7.59,6.78,2.5,18.55,2.5,18.55Z"/>
  <path class="cls-1" d="M31.03,6.83c1.3,.3,10.66,2.73,15.11,11.68,4.4,8.86,2.38,15.62,2.03,16.66l1.64,2.71c.5-1.12,3.91-9.69-1.73-20.74-5.01-9.22-14.28-12.46-18.69-13.04l1.66,2.74Z"/>
</svg>