<?xml version="1.0" encoding="UTF-8"?><svg id="a" xmlns="http://www.w3.org/2000/svg" viewBox="0 0 510.3 142.72"><defs><style>.b{font-size:81.94px;letter-spacing:.1em;}.b,.c{fill:#68b8c1;}.d{font-family:Montserrat-Medium, Montserrat;}.e{fill:#f77432;}.f{fill:#f9861a;font-size:27.31px;letter-spacing:.5em;}</style></defs><polygon class="c" points="21.55 76.07 19.39 81.63 68.66 81.63 70.95 76.07 21.55 76.07"/><polygon class="c" points="62.5 0 130.66 112.72 122.95 112.72 58.75 5.95 62.5 0"/><text class="d" transform="translate(165.36 84.82)"><tspan class="b"><tspan x="0" y="0">ASMAE</tspan></tspan><tspan class="f"><tspan x="0" y="27.31">HAMIDOUCHE</tspan></tspan></text><polygon class="c" points="62.6 25.99 4.61 124.38 11.26 124.38 65.8 31.3 62.6 25.99"/><polygon class="c" points="38.48 105.5 45.6 105.5 77.55 49.38 74.53 44.45 38.48 105.5"/><path class="e" d="M69.74,136.6c-28.71,1.94-46.88-18.78-46.88-18.78l-3.22,5.44s18.59,20,47.89,19.45c31.25,.28,50.76-24.89,50.76-24.89l-3.43-5.55s-14.97,22.93-45.12,24.32Z"/><path class="e" d="M6.48,48.12c-15.14,31.92,1,58.02,1,58.02l3.9-6.4S-.06,74.45,12.83,49.42C26.52,23.51,50.15,17.61,57.44,16.37l-3.35-5.57C19.7,17.58,6.48,48.12,6.48,48.12Z"/><path class="c" d="M80.5,17.73c3.38,.78,27.66,7.08,39.19,30.3,11.41,22.98,6.17,40.53,5.26,43.21l4.25,7.03c1.28-2.91,10.15-25.14-4.5-53.82-13-23.92-37.04-32.33-48.5-33.83l4.3,7.1Z"/></svg>