<svg xmlns="http://www.w3.org/2000/svg" xmlns:xlink="http://www.w3.org/1999/xlink" width="567.699" height="455.924" viewBox="0 0 567.699 455.924">
  <defs>
    <linearGradient id="linear-gradient" x1="0.725" y1="0.71" x2="0.195" y2="0.267" gradientUnits="objectBoundingBox">
      <stop offset="0" stop-color="#29b2ab" stop-opacity="0"/>
      <stop offset="1" stop-color="#29b2ab"/>
    </linearGradient>
    <linearGradient id="linear-gradient-2" x1="0.204" y1="0.503" x2="0.768" y2="0.488" gradientUnits="objectBoundingBox">
      <stop offset="0" stop-color="#ee7f4e" stop-opacity="0"/>
      <stop offset="1" stop-color="#ee7f4e"/>
    </linearGradient>
    <clipPath id="clip-path">
      <rect id="Rectangle_1521" data-name="Rectangle 1521" width="45.707" height="53.586" fill="#353535"/>
    </clipPath>
  </defs>
  <g id="solution-modulable" transform="translate(-712 -3161.789)">
    <g id="Groupe_2024" data-name="Groupe 2024" transform="translate(828.69 3200.722)">
      <path id="Tracé_1154" data-name="Tracé 1154" d="M209.108,106.224v37.465a127.5,127.5,0,0,0,0,254.992v37.469a164.963,164.963,0,1,0,0-329.927ZM119.069,271.187a90.039,90.039,0,1,1,90.039,90.039A90.038,90.038,0,0,1,119.069,271.187Z" transform="translate(-13.542 -68.755)" fill="#353535"/>
      <g id="Groupe_2023" data-name="Groupe 2023" transform="translate(65.451 0)">
        <path id="Tracé_1155" data-name="Tracé 1155" d="M211.176,135.787V98.318a201.613,201.613,0,0,0-130.115,47.37l24.086,28.7A164.307,164.307,0,0,1,211.176,135.787Z" transform="translate(-81.061 -98.318)" fill="#ee7f4e"/>
      </g>
      <path id="Tracé_1156" data-name="Tracé 1156" d="M111.177,240.734a127.215,127.215,0,0,1,45.545-97.664l-24.081-28.7A165.136,165.136,0,0,0,79.3,283.436l36.2-9.7A127.632,127.632,0,0,1,111.177,240.734Z" transform="translate(-43.106 -38.301)" fill="#29b2ab"/>
      <path id="Tracé_1157" data-name="Tracé 1157" d="M103.446,150.041l-36.195,9.7c23.09,86.4,101.892,150.03,195.565,150.03V272.3A165.026,165.026,0,0,1,103.446,150.041Z" transform="translate(-67.251 95.094)" fill="#ee7f4e"/>
      <path id="Tracé_1158" data-name="Tracé 1158" d="M108.515,151.581a89.924,89.924,0,0,1,73.745,38.408l30.7-21.5A127.336,127.336,0,0,0,108.515,114.13h0v37.451Z" transform="translate(87.05 -39.191)" fill="url(#linear-gradient)"/>
      <path id="Tracé_1159" data-name="Tracé 1159" d="M190.92,227.784a127.34,127.34,0,0,0,104.442-54.365l-30.7-21.493a90.006,90.006,0,0,1-147.489,0l-30.7,21.493A127.34,127.34,0,0,0,190.92,227.784Z" transform="translate(4.646 102.142)" fill="url(#linear-gradient-2)"/>
    </g>
    <g id="Groupe_2025" data-name="Groupe 2025" transform="translate(1218.918 3474.505)">
      <g id="Groupe_1910" data-name="Groupe 1910" transform="translate(0 44.755)">
        <path id="Tracé_971" data-name="Tracé 971" d="M57.482,385.029H52.7L49.612,376.6H12.264L9.19,385.029H4.3a3.8,3.8,0,1,0,0,7.6H57.482a3.8,3.8,0,1,0,0-7.6Z" transform="translate(-0.5 -376.6)" fill="#353535"/>
      </g>
      <g id="Groupe_1911" data-name="Groupe 1911" transform="translate(14.934 27.126)">
        <path id="Tracé_972" data-name="Tracé 972" d="M154.174,228.1H129.565l-3.265,8.963h31.067Z" transform="translate(-126.3 -228.1)" fill="#353535"/>
      </g>
      <g id="Groupe_1912" data-name="Groupe 1912" transform="translate(21.131 0)">
        <path id="Tracé_973" data-name="Tracé 973" d="M191.333,2.129a3.789,3.789,0,0,0-7.147,0L178.5,18.06h18.531Z" transform="translate(-178.5 0.4)" fill="#353535"/>
      </g>
    </g>
    <g id="Groupe_2026" data-name="Groupe 2026" transform="translate(833.047 3200.722)">
      <path id="Tracé_1002" data-name="Tracé 1002" d="M313.391,123.841c0,2.521-6.132,4.565-13.7,4.565s-13.7-2.044-13.7-4.565,6.132-4.565,13.7-4.565,13.7,2.044,13.7,4.565Zm0,0" transform="translate(-286 -119.276)" fill="#353535"/>
      <path id="Tracé_1003" data-name="Tracé 1003" d="M286,194.576c0,2.16,5.624,4.565,13.7,4.565s13.7-2.406,13.7-4.565V187.87c-2.11,1.91-6.759,3.445-13.7,3.445S288.11,189.78,286,187.87Zm0,0" transform="translate(-286 -180.88)" fill="#353535"/>
      <path id="Tracé_1004" data-name="Tracé 1004" d="M286,284.829c0,2.16,5.624,4.565,13.7,4.565s13.7-2.406,13.7-4.565v-7.358c-2.11,1.91-6.759,3.445-13.7,3.445s-11.586-1.535-13.7-3.445Zm0,0" transform="translate(-286 -261.35)" fill="#353535"/>
      <path id="Tracé_1005" data-name="Tracé 1005" d="M286,379.524c0,2.16,5.624,4.565,13.7,4.565s13.7-2.406,13.7-4.565v-6.053c-2.11,1.91-6.759,3.445-13.7,3.445s-11.586-1.535-13.7-3.445Zm0,0" transform="translate(-286 -347.567)" fill="#353535"/>
    </g>
    <g id="Groupe_2027" data-name="Groupe 2027" transform="translate(712 3508.471)">
      <g id="group" transform="translate(0 0)">
        <path id="Tracé_991" data-name="Tracé 991" d="M46.478,111.987a9.2,9.2,0,1,0-9.2-9.2A9.032,9.032,0,0,0,46.478,111.987Zm-24.524,0a9.2,9.2,0,1,0,0-18.393,9.2,9.2,0,0,0,0,18.393Zm0,6.13C14.9,118.117.5,121.8.5,128.847v7.663H43.413v-7.663C43.413,121.8,29,118.117,21.954,118.117Zm24.524,0a11.459,11.459,0,0,0-3.065.307c3.678,2.452,6.13,6.13,6.13,10.422v7.663H67.936v-7.663C67.936,121.8,53.528,118.117,46.478,118.117Z" transform="translate(-0.496 -93.594)" fill="#353535"/>
      </g>
    </g>
    <g id="Groupe_2028" data-name="Groupe 2028" transform="translate(1233.991 3262.834)">
      <g id="Groupe_1933" data-name="Groupe 1933" transform="translate(0 0)">
        <g id="Groupe_1932" data-name="Groupe 1932" transform="translate(0 0)" clip-path="url(#clip-path)">
          <path id="Tracé_990" data-name="Tracé 990" d="M300.342,152.508c-.6-1.462-1.207-2.925-1.872-4.366a2.066,2.066,0,0,0-2.748-1.341c-1.784.41-3.535.953-5.318,1.318a20.071,20.071,0,0,1-10.305-.288c-4.266-1.341-6.537-4.432-7.933-8.421h11.568a1.636,1.636,0,0,0,1.64-1.64v-3.645a1.636,1.636,0,0,0-1.64-1.64H271.056c0-1.019-.011-1.995,0-2.97h12.676a1.636,1.636,0,0,0,1.64-1.64v-3.646a1.636,1.636,0,0,0-1.64-1.64H272.652a.166.166,0,0,1,.022-.111,11.786,11.786,0,0,1,6.449-6.715,19.355,19.355,0,0,1,11.291-.642c1.806.365,3.579.919,5.385,1.329a2.031,2.031,0,0,0,2.648-1.318c.653-1.418,1.252-2.859,1.85-4.311a2.178,2.178,0,0,0-1.052-3.08,6.862,6.862,0,0,0-1-.477,31.236,31.236,0,0,0-16.532-1.95,23.6,23.6,0,0,0-10.958,4.521,24.012,24.012,0,0,0-8.233,12.189l-.188.565h-5.7a1.636,1.636,0,0,0-1.64,1.64v3.646a1.636,1.636,0,0,0,1.64,1.64h4.487v2.97H256.64a1.636,1.636,0,0,0-1.64,1.64v3.645a1.636,1.636,0,0,0,1.64,1.64h5.407c.41,1.329.754,2.681,1.274,3.956,2.737,6.6,7.325,11.3,14.228,13.541a29.383,29.383,0,0,0,17.208.211,28.651,28.651,0,0,0,4.4-1.6,2.1,2.1,0,0,0,1.185-3.014Zm0,0" transform="translate(-255 -104.849)" fill="#353535"/>
        </g>
      </g>
    </g>
    <g id="Groupe_2029" data-name="Groupe 2029" transform="translate(844.692 3582.721)">
      <g id="receipt" transform="translate(0 0)">
        <path id="Tracé_992" data-name="Tracé 992" d="M51.352,26.743h-21v-3.5h21Zm0-7h-21v-3.5h21Zm0-7h-21v-3.5h21ZM25.109,35.491l2.624-2.624,2.624,2.624,2.624-2.624,2.625,2.624,2.624-2.624,2.624,2.624,2.624-2.624L46.1,35.491l2.625-2.624,2.624,2.624,2.624-2.624L56.6,35.491V.5L53.976,3.124,51.352.5,48.728,3.124,46.1.5,43.478,3.124,40.854.5,38.231,3.124,35.606.5,32.981,3.124,30.356.5,27.733,3.124,25.109.5Z" transform="translate(-25.109 -0.5)" fill="#353535"/>
      </g>
    </g>
    <g id="Groupe_2030" data-name="Groupe 2030" transform="translate(1186.927 3161.789)">
      <path id="Tracé_993" data-name="Tracé 993" d="M78.583,10.749a3.588,3.588,0,0,0,3.583-3.583V3.583a3.583,3.583,0,0,0-7.166,0V7.166A3.588,3.588,0,0,0,78.583,10.749Z" transform="translate(-66.043)" fill="#353535"/>
      <path id="Tracé_994" data-name="Tracé 994" d="M229.583,10.749a3.588,3.588,0,0,0,3.583-3.583V3.583a3.583,3.583,0,1,0-7.166,0V7.166A3.588,3.588,0,0,0,229.583,10.749Z" transform="translate(-199.009)" fill="#353535"/>
      <path id="Tracé_995" data-name="Tracé 995" d="M380.583,10.749a3.588,3.588,0,0,0,3.583-3.583V3.583a3.583,3.583,0,1,0-7.166,0V7.166A3.588,3.588,0,0,0,380.583,10.749Z" transform="translate(-331.975)" fill="#353535"/>
      <path id="Tracé_996" data-name="Tracé 996" d="M0,215.157a5.38,5.38,0,0,0,5.374,5.374h50.4a5.38,5.38,0,0,0,5.374-5.374V181H0ZM35.424,198.39a1.791,1.791,0,0,1-2.533-2.533l7.166-7.166a1.791,1.791,0,0,1,3.058,1.267V206.08h5.374a1.791,1.791,0,1,1,0,3.583H34.157a1.791,1.791,0,0,1,0-3.583h5.374v-11.8Zm-13.807.525H19.825a1.791,1.791,0,0,1-1.267-3.058l4.108-4.108H16.243a1.791,1.791,0,0,1,0-3.583H26.991a1.791,1.791,0,0,1,1.267,3.058l-4.451,4.451a7.166,7.166,0,1,1-9.356,6.823,1.791,1.791,0,1,1,3.583,0,3.583,3.583,0,1,0,3.583-3.583Z" transform="translate(0 -159.383)" fill="#353535"/>
      <path id="Tracé_997" data-name="Tracé 997" d="M55.774,30.759v2.824a7.166,7.166,0,0,1-14.332,0V30h-3.7v3.583a7.166,7.166,0,0,1-14.332,0V30h-3.7v3.583a7.166,7.166,0,0,1-14.332,0V30.759A8.963,8.963,0,0,0,0,38.957v5.494H61.148V38.957A8.963,8.963,0,0,0,55.774,30.759Z" transform="translate(0 -26.417)" fill="#353535"/>
    </g>
    <g id="Groupe_2031" data-name="Groupe 2031" transform="translate(1162.953 3548.655)">
      <path id="Tracé_1001" data-name="Tracé 1001" d="M373.423,149.4h-1.374v-8.246H369.3v-2.749h.687v1.374h2.749v-5.5h-2.749v1.374H369.3a2.749,2.749,0,0,0-2.749-2.749H350.06a2.749,2.749,0,0,0-2.749,2.749h-.687v-1.374h-2.749v5.5h2.749v-1.374h.687v2.749h-2.749V149.4h-1.374v5.5h1.374v3.436h.035a2.322,2.322,0,0,0,2.714,2.026v.035h2.749v-.035a2.322,2.322,0,0,0,2.714-2.026h.035V154.9H363.8v3.436h.035a2.322,2.322,0,0,0,2.714,2.026v.035H369.3v-.035a2.322,2.322,0,0,0,2.714-2.026h.035V154.9h1.374v-5.5h0Zm-24.737-2.061a2.061,2.061,0,1,1,2.061-2.061A2.062,2.062,0,0,1,348.686,147.341Zm1.374-6.184v-5.5h16.491v5.5Zm17.866,6.184a2.061,2.061,0,1,1,2.061-2.061A2.062,2.062,0,0,1,367.926,147.341Z" transform="translate(-343.189 -126.331)" fill="#353535"/>
      <rect id="Rectangle_1522" data-name="Rectangle 1522" width="29.41" height="5.19" rx="2" transform="translate(0.325)" fill="#353535"/>
    </g>
    <g id="Groupe_2032" data-name="Groupe 2032" transform="translate(733.609 3296.547)">
      <path id="Tracé_90" data-name="Tracé 90" d="M554.35,385.921a7.311,7.311,0,0,0,5.087-2.066l7.252,3.626a7.184,7.184,0,0,0-.09.891,7.349,7.349,0,0,0,14.7,0,7.263,7.263,0,0,0-.737-3.148l9.837-9.838a7.26,7.26,0,0,0,3.148.737,7.358,7.358,0,0,0,7.349-7.349,7.243,7.243,0,0,0-.367-2.177l8.547-6.409a7.655,7.655,0,1,0-2.914-3.936l-8.548,6.409a7.317,7.317,0,0,0-10.681,9.261l-9.838,9.838a7.222,7.222,0,0,0-8.235,1.329l-7.252-3.625a7.162,7.162,0,0,0,.09-.891,7.349,7.349,0,1,0-7.35,7.349Zm0,0" transform="translate(-541.937 -346.724)" fill="#353535"/>
      <path id="Tracé_91" data-name="Tracé 91" d="M597.17,550.947h-2.613V499.174a2.449,2.449,0,0,0-2.45-2.45h-9.8a2.449,2.449,0,0,0-2.45,2.45v51.773h-4.9V513.873a2.449,2.449,0,0,0-2.45-2.45h-9.8a2.449,2.449,0,0,0-2.45,2.45v37.074h-4.9V533.471a2.449,2.449,0,0,0-2.45-2.45h-9.8a2.449,2.449,0,0,0-2.45,2.45v17.475h-4.9V523.672a2.449,2.449,0,0,0-2.45-2.45h-9.8a2.449,2.449,0,0,0-2.45,2.45v27.275H518.45a2.45,2.45,0,1,0,0,4.9h78.72a2.45,2.45,0,1,0,0-4.9Zm0,0" transform="translate(-516 -472.226)" fill="#353535"/>
    </g>
    <path id="traité" d="M15.3,105.066l-5.18-5.18,2.087-2.1,3.093,3.092,7.666-7.651,2.086,2.087ZM29.136,94.751a11.1,11.1,0,0,0-20.72-2.96,8.884,8.884,0,0,0,.962,17.716h19.24a7.386,7.386,0,0,0,.517-14.755Z" transform="translate(1098.416 3114.896)" fill="#353535"/>
  </g>
</svg>
