<svg width="46px" height="45px" viewBox="0 0 46 45" version="1.1" xmlns="http://www.w3.org/2000/svg" xmlns:xlink="http://www.w3.org/1999/xlink">
    <defs></defs>
    <g id="Group" stroke="none" stroke-width="1" fill="none" fill-rule="evenodd">
        <path d="M0,0 L46,0 L46,18.8515625 L46,45 L0,45 L0,0 Z" id="Rectangle-5" fill="#000000"></path>
    </g>
    <path d="M29.743668,24.3213765 C30.3886255,25.2683379 30.7110994,26.3509289 30.7110994,27.5691819 C30.7110994,28.9205214 30.3937441,30.0773325 29.7590241,31.03965 C29.124304,32.0019675 28.251577,32.7313728 27.1408169,33.2278876 C26.0300568,33.7244025 24.7683137,33.9726562 23.3555497,33.9726562 C21.9427857,33.9726562 20.6810426,33.7244025 19.5702825,33.2278876 C18.4595224,32.7313728 17.5867954,32.0019675 16.9520753,31.03965 C16.3173553,30.0773325 16,28.9205214 16,27.5691819 C16,26.3406914 16.3173553,25.2555412 16.9520753,24.3136985 C17.5867954,23.3718558 18.4672003,22.6450099 19.5933166,22.1331389 C18.6207616,21.6315053 17.8606446,20.9507271 17.3129426,20.0907838 C16.7652406,19.2308405 16.4913937,18.2685374 16.4913937,17.2038457 C16.4913937,15.9036933 16.7831558,14.7878312 17.3666888,13.856226 C17.9502217,12.9246207 18.7589658,12.21569 19.7929452,11.7294125 C20.8269247,11.2431351 22.0144476,11 23.3555497,11 C24.6966518,11 25.8841747,11.2431351 26.9181541,11.7294125 C27.9521336,12.21569 28.7608777,12.9246207 29.3444106,13.856226 C29.9279436,14.7878312 30.2197057,15.9036933 30.2197057,17.2038457 C30.2197057,18.2685374 29.9407402,19.2308405 29.3828007,20.0907838 C28.8248613,20.9507271 28.0596257,21.6315053 27.0870707,22.1331389 C28.213187,22.6450099 29.0987105,23.3744152 29.743668,24.3213765 L29.743668,24.3213765 Z M21.1365999,14.9541838 C20.588898,15.5428355 20.3150511,16.338783 20.3150511,17.3420502 C20.3150511,18.3350799 20.588898,19.1335867 21.1365999,19.7375945 C21.6843019,20.3416023 22.4239444,20.6436017 23.3555497,20.6436017 C24.2973924,20.6436017 25.0395942,20.3441616 25.5821775,19.7452725 C26.1247607,19.1463835 26.3960483,18.3453173 26.3960483,17.3420502 C26.3960483,16.3694952 26.1222014,15.5812257 25.5744994,14.9772179 C25.0267975,14.3732101 24.2871549,14.0712107 23.3555497,14.0712107 C22.4239444,14.0712107 21.6843019,14.3655321 21.1365999,14.9541838 L21.1365999,14.9541838 Z M25.9353667,29.9570482 C26.5598493,29.3274469 26.872086,28.4598385 26.872086,27.3541971 C26.872086,26.6273403 26.7262049,25.9900704 26.4344385,25.4423685 C26.142672,24.8946665 25.7280627,24.4698199 25.1905981,24.167816 C24.6531335,23.8658121 24.0312196,23.7148124 23.3248376,23.7148124 C22.6184556,23.7148124 22.0016603,23.8658121 21.4744331,24.167816 C20.947206,24.4698199 20.5402746,24.8946665 20.2536269,25.4423685 C19.9669791,25.9900704 19.8236574,26.6273403 19.8236574,27.3541971 C19.8236574,28.4598385 20.1384533,29.3274469 20.7680547,29.9570482 C21.397656,30.5866496 22.2601457,30.9014455 23.3555497,30.9014455 C24.4509537,30.9014455 25.3108841,30.5866496 25.9353667,29.9570482 L25.9353667,29.9570482 Z" id="8" stroke="none" fill="#FFFFFF" fill-rule="evenodd"></path>
</svg>
