<svg id="Layer_1" data-name="Layer 1" xmlns="http://www.w3.org/2000/svg" viewBox="0 0 509.24 142.72"><defs><style>.cls-1,.cls-4{fill:#68b8c1;}.cls-2{fill:#f77432;}.cls-3{fill:#fff;}.cls-4{font-size:81.94px;font-family:Montserrat-Light, Montserrat;font-weight:300;letter-spacing:0.1em;}.cls-5{font-size:27.31px;fill:#f9861a;letter-spacing:0.5em;}</style></defs><polygon class="cls-1" points="21.55 76.07 19.39 81.63 68.66 81.63 70.95 76.07 21.55 76.07"/><polygon class="cls-1" points="63.32 24.78 4.61 124.38 11.26 124.38 66.55 30.03 63.32 24.78"/><polygon class="cls-1" points="38.48 105.5 74.53 44.45 77.55 49.38 45.6 105.5 38.48 105.5"/><polygon class="cls-1" points="62.5 0 130.66 112.72 122.95 112.72 58.75 5.95 62.5 0"/><path class="cls-1" d="M489.73,322.94,494,330s27.2,5.4,39.61,30.39S538.73,404,538.73,404l4.23,7s11.38-23.36-4.35-54.15C525.47,332.64,501,324.31,489.73,322.94Z" transform="translate(-413.91 -312.37)"/><path class="cls-2" d="M425.29,412.11l-3.9,6.4s-16.14-26.1-1-58c0,0,13.52-31.29,48.85-37.57a37.67,37.67,0,0,1,4.34,5.51s-30.49,2.44-46.83,33.36C413.85,386.82,425.29,412.11,425.29,412.11Z" transform="translate(-413.91 -312.37)"/><path class="cls-2" d="M436.78,430.19l-3.23,5.44s18.6,20,47.9,19.45c31.24.27,50.76-24.89,50.76-24.89l-3.43-5.54s-15,22.93-45.12,24.32C455,450.91,436.78,430.19,436.78,430.19Z" transform="translate(-413.91 -312.37)"/><polygon class="cls-3" points="56.72 2.44 127.96 120.26 119.9 120.26 52.8 8.65 56.72 2.44"/><text class="cls-4" transform="translate(165.36 84.82)">ASMAE<tspan class="cls-5"><tspan x="0" y="27.31">HAMIDOUCHE</tspan></tspan></text></svg>