<svg id="Layer_1" data-name="Layer 1" xmlns="http://www.w3.org/2000/svg" viewBox="0 0 882 152"><defs><style>.cls-1{fill:#f6b906;}.cls-2{font-size:17px;font-family:Italiana-Regular, Italiana;}.cls-3{letter-spacing:-0.13em;}.cls-4{letter-spacing:-0.07em;}.cls-5{letter-spacing:-0.01em;}.cls-6{letter-spacing:-0.02em;}.cls-7{letter-spacing:-0.03em;}.cls-8{letter-spacing:-0.04em;}.cls-9{letter-spacing:-0.06em;}.cls-10,.cls-11{fill:none;stroke:#f6b906;stroke-width:1.4px;}.cls-10{stroke-linecap:round;stroke-linejoin:round;}.cls-11{stroke-linecap:square;stroke-miterlimit:10;}</style></defs><path class="cls-1" d="M152.31,86.12l1,9.1,1.35-.15-1-8.95h3.17V84.76H143.13a3,3,0,0,1-3-3V65.52l-6.4-2.38,6.4-11V45.11c0-10,9.55-18.63,22.2-20l-.15-1.34c-13.34,1.45-23.4,10.64-23.4,21.36v6.7l-7,12,7,2.62V81.81a4.31,4.31,0,0,0,4.31,4.31Z"/><rect class="cls-1" x="171.28" y="70.64" width="1.36" height="24.51"/><path class="cls-1" d="M205.33,45.23c0-12-12.28-21.77-27.39-21.77v1.38c14.35,0,26,9.14,26,20.39v7.14l6.47,11.07L204,65.84V82.28a3,3,0,0,1-3,3H187.14v1.37h3.2l-1,9,1.36.15,1.05-9.18H201a4.35,4.35,0,0,0,4.35-4.35V66.79l7.11-2.64L205.33,52Z"/><path class="cls-1" d="M194.2,35.2l-1.27-.51-2.05,5.15a20.53,20.53,0,0,0-39.48,5.44l1.36.15a19.14,19.14,0,0,1,37-4.81L184.35,38l-.59,1.24,7.4,3.59Z"/><path class="cls-1" d="M158.26,62.92A20.38,20.38,0,0,0,171.8,68c.45,0,.9,0,1.36,0a20.56,20.56,0,0,0,19.11-18.35l-1.36-.14A19.19,19.19,0,0,1,159.16,61.9a19.26,19.26,0,0,1-5.2-7.57l5.36,2.6.6-1.23-7.4-3.59-3.05,7.64,1.27.51,2.06-5.16A20.38,20.38,0,0,0,158.26,62.92Z"/><text class="cls-2" transform="translate(136.84 115.5)">EM<tspan class="cls-3" x="22.42" y="0">P</tspan><tspan class="cls-4" x="29.94" y="0">A</tspan><tspan x="39.32" y="0">THIE</tspan></text><text class="cls-2" transform="translate(279.83 115.17)"><tspan class="cls-5">D</tspan><tspan x="10.4" y="0">EFINE</tspan></text><text class="cls-2" transform="translate(415.91 115.67)">I<tspan class="cls-5" x="5.41" y="0">D</tspan><tspan x="15.81" y="0">E</tspan><tspan class="cls-4" x="24.73" y="0">A</tspan><tspan x="34.12" y="0">TE</tspan></text><text class="cls-2" transform="translate(532.91 114.67)"><tspan class="cls-6">P</tspan><tspan class="cls-7" x="9.38" y="0">R</tspan><tspan class="cls-8" x="19.09" y="0">O</tspan><tspan class="cls-9" x="30.65" y="0">T</tspan><tspan class="cls-7" x="37.96" y="0">O</tspan><tspan x="49.69" y="0">Y</tspan><tspan class="cls-6" x="58.75" y="0">P</tspan><tspan x="68.14" y="0">E</tspan></text><text class="cls-2" transform="translate(683.49 115.17)">TE<tspan class="cls-5" x="17.25" y="0">S</tspan><tspan x="25.84" y="0">T</tspan></text><rect id="Rectangle_87" data-name="Rectangle 87" class="cls-1" x="426.27" y="81.85" width="1.37" height="13.42"/><path id="Path_286" data-name="Path 286" class="cls-1" d="M439.35,23.07A31.91,31.91,0,0,0,422,28l.75,1.14a30.56,30.56,0,0,1,16.58-4.69c14.32,0,26,9.13,26,20.35v7.13l6.45,11-6.45,2.4V81.77a3,3,0,0,1-3,3H448.53v1.37h3.19l-1,9,1.36.15,1.05-9.17h9.24a4.34,4.34,0,0,0,4.34-4.34V66.31l7.09-2.63-7.09-12.13V44.79C466.69,32.81,454.42,23.07,439.35,23.07Z"/><g id="_10" data-name="10"><path class="cls-10" d="M420.58,70.17l1.26,5.46a1.34,1.34,0,0,0,1.56,1.07l.61-.14.09.16A4.09,4.09,0,0,0,428.61,79h0a4.08,4.08,0,0,0,3.07-3.88l0-.3.61-.14a1.35,1.35,0,0,0,.94-1.65L432,67.55Z"/><path class="cls-10" d="M433.51,49.24c-1.52-6.6-7.68-10.83-13.79-9.5s-10,8-8.52,14.61a12.92,12.92,0,0,0,3.5,6.35c2.85,2.83,4.94,5.47,5.87,9.48L432,67.54c-.92-4-.21-7.27,1.12-11.05A13,13,0,0,0,433.51,49.24Z"/><path class="cls-10" d="M427.67,68.44a35.66,35.66,0,0,1-.18-13.5,1,1,0,0,0-1.34-1.18,3.36,3.36,0,0,0-1,.88,3.65,3.65,0,0,1-4.21,1,3.43,3.43,0,0,0-1.33-.34,1,1,0,0,0-.69,1.65,35.55,35.55,0,0,1,5.75,12.22"/><line class="cls-10" x1="410.07" y1="60.96" x2="407.94" y2="62.49"/><line class="cls-10" x1="407.08" y1="50.71" x2="404.5" y2="50.7"/><line class="cls-10" x1="409.96" y1="41.3" x2="407.82" y2="39.86"/><line class="cls-10" x1="418.72" y1="35.25" x2="418.11" y2="32.59"/><line class="cls-10" x1="437.66" y1="54.6" x2="440.25" y2="55.04"/><line class="cls-10" x1="435.96" y1="44.06" x2="438.28" y2="42.92"/><line class="cls-10" x1="429.25" y1="36.85" x2="430.54" y2="34.63"/><line class="cls-10" x1="424.01" y1="76.56" x2="431.7" y2="74.79"/><line class="cls-10" x1="421.6" y1="73.53" x2="432.54" y2="71"/></g><path id="Path_146" data-name="Path 146" class="cls-1" d="M329.85,46v7l6.37,10.89-6.37,2.37v16.2a2.93,2.93,0,0,1-2.93,2.93H313.29v1.36h3.14l-1,8.89,1.35.15,1-9h9.12a4.29,4.29,0,0,0,4.29-4.29V67.21l7-2.6-7-12V46c0-5.77-2.84-11.18-8-15.25l-.84,1.07C327.2,35.59,329.85,40.63,329.85,46Z"/><path id="Path_147" data-name="Path 147" class="cls-1" d="M291.31,95.79h1.36V82.57A30.54,30.54,0,0,0,290.52,71,23.14,23.14,0,0,0,287,65.45l-1.07.84a22.2,22.2,0,0,1,3.29,5.22,29.73,29.73,0,0,1,2.05,11Z"/><path id="Path_148" data-name="Path 148" class="cls-1" d="M296.12,40.72a5.38,5.38,0,0,1,2.34.5L299,40a7,7,0,0,0-2.91-.63,7.06,7.06,0,1,0,7.07,7.06,7.16,7.16,0,0,0-.57-2.78l-1.26.53a5.7,5.7,0,1,1-5.24-3.44Z"/><path id="Path_149" data-name="Path 149" class="cls-1" d="M302.8,35.65a12.69,12.69,0,1,0,4,4l-1.15.73a11.28,11.28,0,1,1-3.6-3.58Z"/><path id="Path_150" data-name="Path 150" class="cls-1" d="M296.12,65.31a18.9,18.9,0,0,0,17.29-26.53l-1.24.55a17.55,17.55,0,1,1-8.4-8.69l.59-1.22a18.49,18.49,0,0,0-8.23-1.89,18.89,18.89,0,0,0,0,37.78Z"/><path id="Path_151" data-name="Path 151" class="cls-1" d="M297.39,44.19a2.56,2.56,0,0,0-1.26-.37,2.6,2.6,0,1,0,2.6,2.6,2.48,2.48,0,0,0-.38-1.27l8.25-8.24h5.2l7.83-7.83h-5.2l2.43-2.43-1-1L313.55,28V23l-7.83,7.83v5Zm-1.26,3.47a1.24,1.24,0,1,1,1.24-1.24,1.25,1.25,0,0,1-1.24,1.24h0Zm20.21-17.22-5.11,5.11H308l5.11-5.11Zm-9.26.95,5.1-5.11V29.4l-5.1,5.1Z"/><g id="_19" data-name="19"><polyline class="cls-11" points="544.24 69.07 542.78 69.44 544.67 62 569.94 36.73"/><polyline class="cls-11" points="575.49 42.28 550.22 67.55 547.08 68.35"/><line class="cls-11" x1="571.82" y1="38.61" x2="575.49" y2="42.28"/><path class="cls-11" d="M575.49,42.28l1.13-1.13a2.24,2.24,0,0,0,0-3.16l-2.39-2.39a2.24,2.24,0,0,0-3.16,0l-1.13,1.13"/><line class="cls-11" x1="572.71" y1="39.51" x2="550.05" y2="62.17"/><line class="cls-11" x1="545.42" y1="62.56" x2="547.99" y2="65.13"/><line class="cls-11" x1="569.93" y1="69.77" x2="559.07" y2="58.92"/><polyline class="cls-11" points="569.21 53.07 580.78 64.65 572.79 72.64"/><polyline class="cls-11" points="550.8 50.65 539.78 39.63 547.77 31.63 561.21 45.07"/><line class="cls-11" x1="577.09" y1="61.21" x2="575.62" y2="62.67"/><line class="cls-11" x1="573.85" y1="57.97" x2="572.39" y2="59.44"/><line class="cls-11" x1="570.62" y1="54.74" x2="569.16" y2="56.2"/><line class="cls-11" x1="557.68" y1="41.8" x2="556.22" y2="43.26"/><line class="cls-11" x1="554.45" y1="38.56" x2="552.08" y2="40.93"/><line class="cls-11" x1="551.21" y1="35.33" x2="549.75" y2="36.79"/><line class="cls-11" x1="573.85" y1="57.97" x2="571.49" y2="60.34"/></g><path id="Path_286-2" data-name="Path 286" class="cls-1" d="M568.47,23.4a32,32,0,0,0-17.33,4.92l.75,1.14a30.59,30.59,0,0,1,16.58-4.69c14.32,0,26,9.13,26,20.35v7.13l6.46,11-6.46,2.4V82.1a3,3,0,0,1-3,3h-13.8v1.37h3.18l-1,9,1.36.15,1.05-9.16h9.24a4.37,4.37,0,0,0,4.35-4.35V66.64L602.9,64l-7.09-12.13V45.12C595.81,33.14,583.55,23.4,568.47,23.4Z"/><path id="Path_147-2" data-name="Path 147" class="cls-1" d="M555.42,96h1.36V84.9a22,22,0,0,0-2.16-9.72,19.13,19.13,0,0,0-3.49-4.66l-1.06.71a18.62,18.62,0,0,1,3.29,4.38,21.52,21.52,0,0,1,2.06,9.27Z"/><g id="Group_23" data-name="Group 23"><path id="Path_108" data-name="Path 108" class="cls-1" d="M686.63,71.64A27.32,27.32,0,0,0,682.21,65c-2.54-3.13-5.16-6.37-6.4-11.36l-1.26.32c1.31,5.27,4.14,8.77,6.64,11.86a26.37,26.37,0,0,1,4.23,6.36,28.77,28.77,0,0,1,2,10.66V95.6h1.3V82.82A29.47,29.47,0,0,0,686.63,71.64Z"/><path id="Path_109" data-name="Path 109" class="cls-1" d="M724.58,45.74l1.29-.15c-.89-8.07-7.69-15-17.32-17.71l-.35,1.25C717.31,31.68,723.74,38.19,724.58,45.74Z"/><path id="Path_110" data-name="Path 110" class="cls-1" d="M725.89,53.73l-1.13.66,6.07,10.38-6.16,2.29V82.72a2.84,2.84,0,0,1-2.84,2.84H708.65v1.31h3l-1,8.6,1.3.14,1-8.74h8.82A4.16,4.16,0,0,0,726,82.72V68l6.76-2.51Z"/><path id="Path_111" data-name="Path 111" class="cls-1" d="M675.75,48.86l-4-3.73h22.38V55.8h1.31v-12H671.74l4-3.73-.89-1-5.74,5.33,5.74,5.34Z"/><rect id="Rectangle_27" data-name="Rectangle 27" class="cls-1" x="694.12" y="61.42" width="1.31" height="34.18"/><path id="Path_112" data-name="Path 112" class="cls-1" d="M728.62,53.84l.89,1,5.74-5.34-5.74-5.33-.89.95,4,3.73h-25v1.3h25Z"/><path id="Path_113" data-name="Path 113" class="cls-1" d="M699.39,95.6h1.31V50.11h1.85v-1.3h-3.16Z"/><path id="Path_114" data-name="Path 114" class="cls-1" d="M699.39,26.62V45.14h4.81V55.8h1.31v-12H700.7V26.62l3.72,4,1-.89L700,24l-5.33,5.74.95.89Z"/><rect id="Rectangle_28" data-name="Rectangle 28" class="cls-1" x="704.2" y="61.67" width="1.31" height="33.93"/><path id="Path_115" data-name="Path 115" class="cls-1" d="M682.57,36.31l-.13-5.48,6.64,6.83V41.3h1.31V37.13l-7-7.21,5.47.28.06-1.31-7.83-.39.18,7.83Z"/><path id="Path_116" data-name="Path 116" class="cls-1" d="M689.08,47.13V59.26h8.21V58h-6.9V47.13Z"/><path id="Path_117" data-name="Path 117" class="cls-1" d="M710.63,79.67V58H702.5v1.31h6.82V79.67Z"/></g></svg>